<svg xmlns="http://www.w3.org/2000/svg" viewBox="0 0 297.71 297.79"><defs><style>.cls-1{fill:none;}.cls-2{fill:#8cd5ea;}.cls-3{fill:#fff;}</style></defs><g id="Layer_2" data-name="Layer 2"><g id="Layer_1-2" data-name="Layer 1"><rect y="0.08" width="297.71" height="297.71"/><path class="cls-1" d="M113.46.08h7.71C118.56,0,116,0,113.46.08Z"/><path class="cls-2" d="M0,41v-.82"/><path class="cls-2" d="M187.76.08H190"/><path class="cls-2" d="M0,150.58v-3.71"/><path class="cls-2" d="M0,72.77V70.69"/><path class="cls-2" d="M198.11,297.79H197"/><path class="cls-2" d="M221.9,297.79h-1.33"/><path class="cls-2" d="M184.8,297.79h-.94"/><path class="cls-2" d="M170.58,297.79h-.86"/><path class="cls-2" d="M235.23,297.79h-1.66"/><path class="cls-2" d="M149.5,297.79h-.74"/><path class="cls-2" d="M110.65,297.79h-1.54"/><path class="cls-1" d="M276.61,11.21A61.56,61.56,0,0,1,272.33.08H224.49a161.32,161.32,0,0,1-21.18,12.46,109.91,109.91,0,0,1-19.66,7.36c-4.53,1.19-9.27,1-13.85.74-2.05-.1-4.18-.21-6.24-.17h-.15l-.11-.11c-.51-.56-1.22-.5-2.05-.44a3.89,3.89,0,0,1-2-.18c-1.62-.48-3.3-1-4.95-1.4-3.37-.91-6.79-1.74-10.2-2.47a194.75,194.75,0,0,0-21-3.32,171.59,171.59,0,0,0-44.52,1.09C67,15.51,51.89,18.4,38.64,24.17,30.74,27.62,24.53,34,18.52,40.08,12.91,45.82,7.16,51.66,0,55.11V70.69H.64C11.88,70.11,18,64.2,23.8,55.51,30,46.15,36.55,37.25,48,31.25c10.53-5.54,24.29-8.43,40.91-8.57,10.49-.1,25.36,1.27,36.57,8.26,2.22,1.39,9.36,6.4,7.95,12.71-1,4.55-3.83,9-8.36,13.24-17.65,16.57-43.77,22.3-67,25.7-1.73.26-3.47.47-5.31.69-8.87,1.07-18,2.18-24.38,8.08s-9.3,14.36-12.2,22.59l-.59,1.68c-.62,1.73-1.21,3.47-1.82,5.23-2.86,8.3-5.82,16.9-10.32,24.49-1,1.78-2.21,3.52-3.42,5.23v14.14c7.23-7.76,11.76-17.55,16.18-27.11,4-8.64,8.11-17.57,14.16-24.94,8.12-9.88,18.72-16.48,29.85-18.59,14.85-2.81,29.59-7.8,42.25-12.26,3.32-1.17,6.76-2.51,10.08-3.79,9.74-3.78,19.81-7.68,29.83-8.79,1.16-.14,2.3-.3,3.4-.45,4.09-.58,7.95-1.13,12.51.09A30,30,0,0,1,171.8,77c6.73,6.86,9.75,15.61,12.67,24.09,1.07,3.1,2.17,6.3,3.44,9.38l.82,2.79c2.5,8.56,5.1,17.42,9,25.59,5,10.4,11.52,17.59,19.31,21.38,9.21,4.47,20.5,4.95,31.4,5.41,3,.13,5.8.25,8.55.45,4.55.32,9.16.77,13.63,1.18,8.84.84,17.95,1.7,27,1.76V154.6a177.3,177.3,0,0,1-29.22,1.7c-7.11-.23-14.43-.82-21.74-1.78-1.32-.17-2.65-.33-4-.48a72.4,72.4,0,0,1-13.6-2.45,39.35,39.35,0,0,1-21-15.66c-5.69-8.45-8.54-18.38-10.58-27a176.46,176.46,0,0,1-3-17.73l-.3-2.26c-.92-7-1.89-14.12-1.06-21.22a48.93,48.93,0,0,1,15.34-30,65.28,65.28,0,0,1,30.2-15.86c9.85-2.25,21.84,5.73,30.59,11.55l2.73,1.8,3,2c7.19,4.71,14.57,9.55,22.62,12.79V34.12C289,29.2,281.62,21.18,276.61,11.21Z"/><path class="cls-1" d="M265.46,82.55a24.69,24.69,0,0,0-2.64.13c-6.42.68-12.08,3.6-15.53,8a18.16,18.16,0,0,0-3.49,14.06c2.45,8.46,11.12,14,22.09,14,11.5,0,23.49-6.35,24.15-18.49a12.94,12.94,0,0,0-3.77-9.91C281.16,85,272.14,82.55,265.46,82.55Z"/><path class="cls-1" d="M273.63,284.9a83.64,83.64,0,0,0-34.9,4.93,97.22,97.22,0,0,0-16.83,8h11.67c1.42-.68,2.84-1.31,4.28-1.88a80.52,80.52,0,0,1,40.27-5.16c5.16.64,10.36,1.61,15.4,2.54l4.19.77v-5.89c-2.21-.32-4.4-.66-6.57-1C285.41,286.28,279.49,285.35,273.63,284.9Z"/><path class="cls-1" d="M263.63,279.11c-11.65.4-22.71,4.25-32,8A105.38,105.38,0,0,0,211,297.79h9.55a97.31,97.31,0,0,1,17.93-8.61,84.33,84.33,0,0,1,35.18-5c5.89.45,11.82,1.38,17.56,2.27q3.21.51,6.47,1v-5.1c-3-.36-5.91-.77-8.81-1.18C280.64,280,272.1,278.82,263.63,279.11Z"/><path class="cls-1" d="M26.42,141.57a69.7,69.7,0,0,1,21.69-29.09c8.31-6.4,18.39-9.59,28.13-12.67,3.34-1,6.79-2.14,10.1-3.34,5.3-1.38,10.9-3.35,16.84-5.43,20.46-7.2,43.66-15.36,61.35-.72,11.63,9.64,16.57,24.6,21.34,39.08,1.77,5.35,3.44,10.4,5.42,15.2,3.62,8.73,9.05,19.51,19,25.44,9.18,5.48,21,5.75,32.48,6,3.2.08,6.21.15,9.12.33,9.66.61,19.26,2.09,28.54,3.52,5.47.84,11.13,1.72,16.76,2.4l.57.07V169.7c-9.13-.06-18.25-.92-27.12-1.76-4.46-.42-9.07-.86-13.61-1.18-2.74-.2-5.55-.32-8.52-.44-11-.47-22.34-.95-31.68-5.49-7.94-3.85-14.54-11.16-19.64-21.7-4-8.22-6.56-17.1-9.08-25.69l-.8-2.75c-1.27-3.07-2.38-6.29-3.45-9.39-3-8.79-5.89-17.09-12.51-23.84a29.29,29.29,0,0,0-13.21-7.91c-4.43-1.18-8.22-.64-12.24-.08-1.11.17-2.25.33-3.42.45-9.93,1.11-20,5-29.66,8.76-3.33,1.29-6.77,2.62-10.1,3.79C90,86.94,75.22,91.94,60.32,94.77c-11,2.07-21.43,8.59-29.44,18.34-6,7.3-10.1,16.19-14.07,24.78-4.55,9.86-9.22,20-16.81,27.86v12.66a59.41,59.41,0,0,0,7.43-5.67C16.9,164.18,21.82,153.11,26.42,141.57Z"/><path class="cls-1" d="M282.65,57.43l-2.75-1.19c-10.82-4.71-23.09-10.05-34.68-9.13-22.5,1.8-35.17,25.7-35.67,47.29-.31,13.18,2.26,23.72,7.65,31.33,4.57,6.47,11.74,11.56,20.71,14.72,16.58,5.83,38.1,6,56.18.54,1.2-.36,2.41-.76,3.62-1.16v-14.1A73.66,73.66,0,0,1,272.88,134a62.68,62.68,0,0,1-8.49.59A52.48,52.48,0,0,1,245,131.07a47.26,47.26,0,0,1-12.45-7.32c-4.77-3.91-6.92-9.61-8.83-14.64a41.13,41.13,0,0,1,8.38-33.57c6.13-7.69,15.95-12.1,26.94-12.1a39.25,39.25,0,0,1,4.73.29c10.44,1.24,21.57,5.4,34,12.69V63.84c-3.85-1.54-7.66-3.19-11.37-4.81Z"/><path class="cls-1" d="M271.73,35.83c-.86-.56-1.78-1.17-2.73-1.81-8.65-5.75-20.5-13.63-30.06-11.44-24.8,5.65-42.46,23.42-45,45.25-.82,7,.14,14.15,1.06,21l.31,2.27a174.41,174.41,0,0,0,3,17.66c2,8.53,4.85,18.38,10.49,26.74a38.6,38.6,0,0,0,20.59,15.39,72.18,72.18,0,0,0,13.47,2.42c1.33.15,2.65.31,4,.48,7.3.95,14.58,1.55,21.67,1.78a177.08,177.08,0,0,0,29.2-1.71V142c-1,.33-2,.66-3,1-18.49,5.63-40.51,5.41-57.49-.57-9.37-3.3-16.89-8.66-21.71-15.48-5.65-8-8.35-18.94-8-32.58C208,71.86,221.34,46.93,245.06,45c12.09-1,24.62,4.49,35.67,9.29l2.74,1.19,3.7,1.6c3.45,1.5,7,3,10.54,4.48V50.75c-8.21-3.26-15.71-8.18-23-13Z"/><path class="cls-1" d="M263.65,64.41a40.15,40.15,0,0,0-4.65-.27c-10.78,0-20.4,4.31-26.4,11.83a40.41,40.41,0,0,0-8.25,32.94c1.85,4.9,4,10.51,8.61,14.3a46.21,46.21,0,0,0,12.25,7.21,51.82,51.82,0,0,0,19.18,3.52,61.49,61.49,0,0,0,8.4-.59,73.2,73.2,0,0,0,24.92-8.42V77.22C285.24,69.86,274.09,65.66,263.65,64.41Zm2.24,55c-11.28,0-20.22-5.7-22.77-14.51a18.83,18.83,0,0,1,3.63-14.64c3.56-4.57,9.38-7.59,16-8.29a23.61,23.61,0,0,1,2.71-.14c6.83,0,16.06,2.48,21.31,8a13.61,13.61,0,0,1,4,10.42C290.05,112.85,277.72,119.43,265.89,119.43Z"/><path class="cls-1" d="M273,.08a60.86,60.86,0,0,0,4.19,10.81,53.38,53.38,0,0,0,20.48,22.43v-22A34.84,34.84,0,0,1,292.9.08Z"/><path class="cls-1" d="M263.55,277c8.65-.3,17.3.92,25.65,2.1,2.8.4,5.65.8,8.51,1.14v-5c-3-.35-6-.78-8.94-1.2-5.38-.78-10.93-1.59-16.32-1.83-23.49-1.06-49.63,7.52-71.71,23.56-.91.66-1.78,1.34-2.63,2h9.32a102.58,102.58,0,0,1,23.44-12.64C240.32,281.36,251.58,277.44,263.55,277Z"/><path class="cls-1" d="M278,291.44a79.7,79.7,0,0,0-39.92,5.11c-1,.39-1.92.8-2.88,1.24h24.13a71.11,71.11,0,0,1,11.51-.49c2,.09,4.06.27,6.08.49h20.76v-3l-4.32-.79C288.37,293,283.17,292.08,278,291.44Z"/><path class="cls-1" d="M12.13,249.5c5.52-13.09,8-26.64,7.86-42.61a26.83,26.83,0,0,1-.79-3c-.47-2.14-.92-4.16-2.29-5.53-2.28-2.27-3.67-2.84-7.09-2.89H9.16a45.56,45.56,0,0,0-9.16,1v25.24c2,3.33,2.08,7.44,2,12.16A32.26,32.26,0,0,1,0,243.24v35.7a188.26,188.26,0,0,1,8.23-20.56C9.53,255.49,10.87,252.5,12.13,249.5Z"/><path class="cls-1" d="M272.48,271.5c5.42.24,11,1.05,16.39,1.83,2.92.42,5.87.85,8.84,1.19v-7.89c-3.48-.29-7-.69-10.38-1.08-10.24-1.19-20.82-2.43-31.17-.55l-.82.15a163.39,163.39,0,0,0-16.43,3.56,93.44,93.44,0,0,0-12,4.69c-1.79.8-3.64,1.62-5.44,2.36-13.1,5.37-26.71,11.49-36.65,22l0,.06H197c1.06-.9,2.16-1.77,3.32-2.61C222.54,279.06,248.83,270.41,272.48,271.5Z"/><path class="cls-1" d="M75.61,288.19c8.45-5.82,19-13.06,24-23.24,4.52-9,4.34-18.21-.56-28.88-4-8.73-10.13-15.94-17.22-20.29a30.24,30.24,0,0,0-11.44-4.26,21.86,21.86,0,0,0-3.15-.25c-4,0-7.16,1.29-11.15,3.1-8.43,8-12.26,20.43-15.63,31.4l-.27.88A254.54,254.54,0,0,0,32,284.5c.62,4.83,2.35,9.92,5.44,13.29H58.17A91.08,91.08,0,0,0,75.61,288.19ZM64,239a10.24,10.24,0,0,1,7.92-4.23c3.38,0,6.46,2.07,8.22,5.53,3.4,6.68,2,13.45-3.7,18.58a12.5,12.5,0,0,1-8.18,3.42h0a8.94,8.94,0,0,1-7.79-4.65l0-.06C58.43,251.89,59.9,244.25,64,239Z"/><path class="cls-1" d="M0,223.23V241a28.06,28.06,0,0,0,1.25-7.16C1.37,229.77,1.29,226.21,0,223.23Z"/><path class="cls-1" d="M68.27,261.58h0A11.79,11.79,0,0,0,76,258.33c5.5-4.9,6.79-11.37,3.55-17.75-1.66-3.27-4.44-5.15-7.6-5.15a9.39,9.39,0,0,0-7.36,4c-4,5.09-5.41,12.44-3.49,17.89A8.13,8.13,0,0,0,68.27,261.58Z"/><path class="cls-1" d="M221.22,275.12c1.8-.73,3.64-1.55,5.43-2.35A93.16,93.16,0,0,1,238.72,268a163.61,163.61,0,0,1,16.49-3.57l.82-.15c10.46-1.9,21.09-.66,31.38.54,3.38.39,6.85.79,10.3,1.08v-7.76c-4-.24-8-.68-12-1.11-9.88-1.07-20.11-2.19-30.06-.17-15.64,3.2-29.31,7.84-40.64,13.82-4.29,2.27-8.81,4.26-13.18,6.2a149.69,149.69,0,0,0-18.12,9,42.68,42.68,0,0,0-13.17,11.87h13.28c.16-.18.31-.36.48-.53C194.37,286.67,208.06,280.52,221.22,275.12Z"/><path class="cls-1" d="M183.38,285.33a153.32,153.32,0,0,1,18.2-9.05c4.37-1.93,8.88-3.92,13.15-6.18,11.38-6,25.12-10.67,40.82-13.87,10.05-2.05,20.34-.93,30.28.16,3.9.42,7.92.85,11.88,1.1V247.15c-4.23-.07-8.51-.47-12.67-.88-3.11-.3-6-.59-8.9-.74-1.28-.06-2.57-.09-3.86-.09-21.36,0-41.42,9-60.83,17.62-3.38,1.51-6.87,3.07-10.29,4.54-11.27,4.86-23.5,9.72-36.59,12.4l-2.41.52a44.85,44.85,0,0,1-9.5,1.43,11.13,11.13,0,0,1-7.56-2.39c-3.38-2.89-4.87-7.08-6.32-11.12-.48-1.34-1-2.72-1.53-4-10-23.7-23.54-43.77-40.15-59.66A128.28,128.28,0,0,0,68.19,183.7,110.91,110.91,0,0,0,51,176.41a23.67,23.67,0,0,1-8.1-4,12.38,12.38,0,0,1-3.7-5.18c-.29-.6-.57-1.22-.92-1.87l0-.13a49,49,0,0,1,9.08-33.55c6.72-9.4,17.47-15.53,28.08-20.76a191.15,191.15,0,0,1,33.12-12.28c1.61-.45,3.26-.94,5-1.45,7.38-2.2,15.73-4.7,23.56-4.7a30.22,30.22,0,0,1,7.63.92c4.61,1.2,7.92,2.16,11.78,4.33a26.17,26.17,0,0,1,5.82,5.07c.57.61,1.13,1.2,1.69,1.76,4.15,4.15,6.94,9.42,9.34,14.5a209.5,209.5,0,0,1,7.93,20.4c1.41,4.05,2.87,8.22,4.46,12.27,5.13,13.09,11,22.3,18.37,29,5.15,4.64,14.48,7.15,20.66,7.15h11.11c.77,0,1.73-.07,2.73-.15,1.21-.09,2.47-.19,3.69-.19a9.24,9.24,0,0,1,4.11.7,13,13,0,0,0,5.46.83c.56,0,1.12,0,1.68,0h1.64a20.36,20.36,0,0,1,3.34.22c3.84.71,7.39,1.38,10.87,2.07,7.83,1.55,14.88,3.1,21.57,4.74,2.33.57,4.6,1.15,6.83,1.73V183.08l-.66-.08c-5.64-.69-11.3-1.56-16.78-2.4-9.26-1.42-18.84-2.9-28.47-3.51-2.9-.19-5.91-.25-9.09-.33-11-.26-23.49-.56-32.83-6.13-10.08-6-15.57-16.94-19.23-25.77-2-4.81-3.67-9.88-5.44-15.25-4.74-14.37-9.65-29.25-21.12-38.75-17.38-14.4-40.39-6.31-60.69.83-5.94,2.09-11.56,4.06-16.85,5.44-3.3,1.2-6.76,2.29-10.1,3.34-9.68,3.07-19.7,6.23-27.92,12.56a69,69,0,0,0-21.46,28.8c-4.64,11.62-9.59,22.77-19.17,31.42a61,61,0,0,1-7.9,6V194.3a47.57,47.57,0,0,1,9.85-.94c4,.07,5.87.86,8.53,3.51,1.81,1.8,2.34,4.21,2.86,6.55a25.13,25.13,0,0,0,.77,2.94l.06.16v.18c.18,16.34-2.36,30.2-8,43.61-1.27,3-2.61,6-3.91,8.93C6,268.54,2,277.39,0,287.14v10.65H12.35c.47-14.27,5.34-26.75,10.5-39.92l.13-.35c3-7.59,5.3-15.48,7.54-23.11,1.67-5.68,3.4-11.55,5.39-17.27l.09-.26c2.14-6.16,4.8-13.83,10.41-17.39a27.2,27.2,0,0,1,17.35-4c13.08,1.38,25.14,11.31,31.17,17.11a82.2,82.2,0,0,1,19.7,29.84c3.9,10.24,7.1,23.51-2.78,35.29-5.26,6.28-12.13,11.17-18.77,15.89-1.91,1.36-3.85,2.75-5.75,4.17h21.78c3.27-1.67,6.71-3.26,10.39-4.77l1.53-.64c4.52-1.87,9.18-3.81,14-4.43l.22,0c3.41-.45,6.63-.86,9.26,1.7a21.64,21.64,0,0,1,4.84,7.63c.07.18.12.36.19.54h20.22C172.82,293.15,177.34,289.05,183.38,285.33Z"/><path class="cls-1" d="M111.32,277.29c9.65-11.51,6.49-24.54,2.66-34.61A81.45,81.45,0,0,0,94.44,213.1c-6-5.74-17.88-15.57-30.76-16.93a26.58,26.58,0,0,0-16.9,3.91c-5.4,3.42-8,11-10.12,17l-.1.26c-2,5.7-3.7,11.57-5.37,17.24-2.25,7.65-4.58,15.56-7.56,23.18l-.13.33c-5.13,13.11-10,25.54-10.46,39.68H36.47c-2.95-3.49-4.61-8.49-5.21-13.25v-.09a254.81,254.81,0,0,1,8.31-38l.27-.88C43.25,234.5,47.11,222,55.7,213.83l.1-.07c4.09-1.86,7.32-3.18,11.49-3.18a21.7,21.7,0,0,1,3.25.25,31,31,0,0,1,11.71,4.36c7.2,4.43,13.4,11.74,17.48,20.59,5,10.87,5.17,20.24.55,29.48C95.11,275.6,84.52,282.89,76,288.76a94,94,0,0,1-16.05,9H86.17c2.15-1.62,4.35-3.2,6.51-4.73C99.28,288.36,106.11,283.5,111.32,277.29Z"/><path class="cls-1" d="M144,290.12c-2.38-2.33-5.44-1.94-8.68-1.51l-.23,0c-4.67.61-9.3,2.53-13.77,4.38l-1.53.64c-3.21,1.32-6.24,2.7-9.12,4.13h38.11a2.31,2.31,0,0,0-.1-.28A20.7,20.7,0,0,0,144,290.12Z"/><path class="cls-1" d="M151,149a40.41,40.41,0,0,0-6.36-8.81c-2.7-2.85-5.47-4-9-5.48l-.57-.24a20.22,20.22,0,0,0-3.9-.37,23.93,23.93,0,0,0-17.55,8.11,20.27,20.27,0,0,0-5.29,16c1.12,9.31,6.32,16.4,10.49,20.71l.78.8c4.79,5,9.73,10.08,16,13a20.52,20.52,0,0,0,8.65,2.08h.14c4.55,0,6.63-1.64,9.33-5.08,3.64-4.65,3.33-14.37,2.79-21.27A49.07,49.07,0,0,0,151,149Zm-11.17,21.59a4.72,4.72,0,0,1-3.54,2,4.61,4.61,0,0,1-.52,0c-4.65,0-8.39-4.35-10-8.67l0-.1c0-.42-.06-.85-.1-1.27-.25-3.06-.51-6.24,2.34-8.38a6.21,6.21,0,0,1,6.88-.91,12.35,12.35,0,0,1,6.63,8.86C142,164.6,141.57,168.31,139.83,170.59Z"/><path class="cls-1" d="M18,39.6c6-6.18,12.31-12.57,20.33-16.06,13.32-5.8,28.43-8.7,40.12-10.59a172.1,172.1,0,0,1,44.7-1.09,194.14,194.14,0,0,1,21.07,3.33c3.41.73,6.85,1.56,10.23,2.48,1.66.45,3.34.93,5,1.43a3.45,3.45,0,0,0,1.7.13,3,3,0,0,1,2.51.54c2,0,4.12.08,6.13.18,4.53.22,9.21.44,13.64-.72A108.93,108.93,0,0,0,203,11.92,159.74,159.74,0,0,0,223.26.08H190a73.53,73.53,0,0,1-22,3.88c-9.16.21-18.41-.91-27.36-2-6-.73-12.27-1.49-18.41-1.83l-1.11,0h-7.71C104.2.46,95.3,2.1,86,3.83L79.79,5l-2.23.4C64.06,7.76,48.75,10.47,36,15.88c-1,.44-2.07.86-3.08,1.27-4.24,1.73-8.24,3.35-12.11,6.27a124.76,124.76,0,0,0-9.58,8.28L9.15,33.59A81.56,81.56,0,0,1,0,41V54.38C6.8,51,12.32,45.42,18,39.6Z"/><path class="cls-1" d="M297.71.08h-2.65a34.75,34.75,0,0,0,2.65,7.09Z"/><path class="cls-1" d="M156.29,139.92a44.53,44.53,0,0,0-9.57-11.31,42.93,42.93,0,0,0-6.41-4.43,46.17,46.17,0,0,0-4.77-.82c-1.45-.19-3-.39-4.43-.73-11.46.17-23.66,6.43-30.38,15.61-3.58,4.89-7.21,12.79-4.2,22.67,3.85,11.51,12.13,20.93,20.51,29.4,8.64,8.74,18.11,17.42,28.77,21.71,6.68,2.69,12.36,3,16.34.81,4.52-3,5.39-8.39,5.9-13.64,1-10.28-.78-21-2.33-30.49C164.46,161,162.11,149.63,156.29,139.92Zm-2,50.26c-2.78,3.54-5.07,5.34-9.88,5.34h-.14a21.35,21.35,0,0,1-9-2.14c-6.35-3-11.34-8.18-16.17-13.18l-.78-.81c-4.24-4.39-9.54-11.61-10.68-21.11a21,21,0,0,1,5.46-16.53,24.62,24.62,0,0,1,18.07-8.35,21.27,21.27,0,0,1,4.07.39l.07,0,.6.25c3.58,1.5,6.41,2.69,9.22,5.64a41.42,41.42,0,0,1,6.46,9,49.76,49.76,0,0,1,5.59,19.75C157.76,175.45,158.05,185.34,154.27,190.18Z"/><path class="cls-1" d="M0,7.7A78.49,78.49,0,0,1,19.53.08H0Z"/><path class="cls-1" d="M3,96.22a19.73,19.73,0,0,0-3-5.64v38.3C5.06,115.09,6,104.38,3,96.22Z"/><path class="cls-1" d="M56.68,63.51A31.87,31.87,0,0,0,66.54,65a42,42,0,0,0,4.82-.28c11.22-1.29,20.3-6.35,24.29-13.52,1.42-2.54,1.58-4.76.51-6.6-2.82-4.79-13.46-6.07-19.3-6.07a30.36,30.36,0,0,0-3.55.18C64,39.77,53.12,44.07,50.46,52.89l0,.07a5.65,5.65,0,0,0-.5,5C51,60.79,54.25,62.72,56.68,63.51Z"/><path class="cls-1" d="M168,3.27A72.8,72.8,0,0,0,187.76.08H130.29c3.53.35,7,.77,10.49,1.19C149.7,2.35,158.94,3.48,168,3.27Z"/><path class="cls-1" d="M134.55,153.88a5.55,5.55,0,0,0-6.18.83c-2.53,1.92-2.3,4.77-2.05,7.78l.09,1.23c1.63,4.22,5.29,8.47,9.83,8.15a4.05,4.05,0,0,0,3-1.71c1.59-2.08,2-5.63,1.51-7.92A11.69,11.69,0,0,0,134.55,153.88Z"/><path class="cls-1" d="M11.77,120.18c.61-1.76,1.21-3.51,1.82-5.24l.59-1.68c3-8.47,6.06-17.22,12.74-23.43,6.85-6.36,16.79-7.56,25.55-8.61,1.84-.23,3.56-.43,5.26-.68,22.9-3.37,48.64-9,65.88-25.16,4.2-4,6.81-8.05,7.74-12.18,1.12-5-5.09-9.29-7-10.5-10.78-6.72-25.22-8-35.44-7.94-16.28.14-29.72,2.94-39.95,8.33C38,38.87,31.6,47.54,25.54,56.66S12.86,72.14.75,72.75c-.25,0-.5,0-.75,0V89.52A18.75,18.75,0,0,1,3.65,96c3.22,8.65,2,20.07-3.65,34.85v16c.56-.86,1.11-1.71,1.63-2.58C6,136.88,8.94,128.39,11.77,120.18Zm38-67.52C52.58,43.54,63.72,39.1,73.23,38a31.84,31.84,0,0,1,3.63-.18c7.44,0,17.11,1.68,19.9,6.41,1.21,2.06,1,4.51-.5,7.28-4.1,7.38-13.38,12.56-24.82,13.87a41.35,41.35,0,0,1-4.9.29,32.64,32.64,0,0,1-10.08-1.49c-2.69-.88-6-2.9-7.17-6A6.27,6.27,0,0,1,49.8,52.66Z"/><path class="cls-1" d="M256.86,209.69c-7-2.19-14.44-2.78-21.62-3.35-6.36-.5-12.93-1-19.24-2.65-24.11-6.2-31.76-29.39-39.15-51.82-4.51-13.7-9.17-27.86-17.56-37.72-6.3-7.4-13.94-10.85-24-10.85-1,0-2.07,0-3.14.1a97.34,97.34,0,0,0-29.6,6.67,104.75,104.75,0,0,0-26.27,15.2c-8.41,6.64-16.79,15-15.13,26.6a14,14,0,0,1,1.36,3.75,12.6,12.6,0,0,0,1.58,4.06,53.94,53.94,0,0,0,5.69,7.53c3.16,3.35,6.59,6.53,9.9,9.62,2,1.82,4,3.7,5.93,5.59,2.64,2.58,5.34,5.15,8,7.64,7.56,7.22,15.38,14.68,22.53,22.75,4.24,4.8,8.47,9.75,12.56,14.53,5,5.87,10.21,11.93,15.46,17.76l.67.74c4.17,4.64,8.11,9,13.68,11.84a39,39,0,0,0,17.46,3.92c.47,0,1,0,1.43,0,13.28-.41,26.22-6.69,39.42-13.65l6.3-3.34c10.62-5.64,21.6-11.49,33-16.21.75-.32,1.72-.64,2.74-1,4.55-1.54,10.8-3.65,10.6-8.29C268,214.61,261.79,211.22,256.86,209.69ZM191.4,235.28c-4.33,4.63-11.87,5.33-16,5.33a34.92,34.92,0,0,1-11.95-2C151,233.93,140.78,225,131.55,216.07c-2.82-2.72-5.7-5.45-8.51-8.1-6.89-6.52-14-13.27-20.56-20.39A148.47,148.47,0,0,1,89.33,171.3c-1.85-2.7-3.54-5.41-5-8.08a19.12,19.12,0,0,1-1.41-3.69,15.59,15.59,0,0,0-1.57-3.88l0-.07v-.09a37.83,37.83,0,0,1,1-13.58c1-3.69,4.18-7.09,6.69-9.81L89,132a59.69,59.69,0,0,1,18.9-13.62c8.6-4,16.59-6,23.77-6a31.05,31.05,0,0,1,11.39,2c13.25,5.21,19.56,17.83,24,29.49a251.44,251.44,0,0,1,7.6,25.35c1.35,5.17,2.75,10.53,4.34,15.73a219.7,219.7,0,0,0,8.2,21.78c.66,1.56,1.4,3.11,2.18,4.75,2.26,4.76,4.6,9.67,5,14.69A11.66,11.66,0,0,1,191.4,235.28Z"/><path class="cls-1" d="M269.18,192c-3.48-.69-7-1.37-10.86-2.06a18.82,18.82,0,0,0-3.22-.22l-1.63,0h-1.69a13.28,13.28,0,0,1-5.78-.9,8.73,8.73,0,0,0-3.79-.63c-1.19,0-2.44.1-3.63.19-1,.08-2,.16-2.79.16h-11.1c-6.32,0-15.86-2.57-21.13-7.32-7.49-6.76-13.39-16.05-18.56-29.24-1.59-4.06-3.05-8.25-4.47-12.3a206.26,206.26,0,0,0-7.9-20.34c-2.37-5-5.13-10.22-9.2-14.3-.57-.57-1.14-1.17-1.71-1.77a25.61,25.61,0,0,0-5.65-5c-3.79-2.13-7.06-3.07-11.61-4.26a29.4,29.4,0,0,0-7.46-.89c-7.73,0-16,2.48-23.36,4.67-1.7.5-3.36,1-5,1.45a190.29,190.29,0,0,0-33,12.23c-10.53,5.19-21.19,11.27-27.83,20.55a48.33,48.33,0,0,0-9,33c.34.65.63,1.25.91,1.85a11.79,11.79,0,0,0,3.5,4.92,23.1,23.1,0,0,0,7.88,3.91,111,111,0,0,1,17.34,7.34,128.6,128.6,0,0,1,29.07,21.16c16.68,15.95,30.24,36.1,40.32,59.89.55,1.32,1,2.71,1.53,4.06,1.42,4,2.89,8.06,6.12,10.84a10.51,10.51,0,0,0,7.11,2.21,44.27,44.27,0,0,0,9.34-1.4l2.42-.53c13-2.66,25.23-7.51,36.47-12.35,3.41-1.48,6.9-3,10.28-4.54,19.48-8.7,39.61-17.68,61.11-17.68,1.3,0,2.61,0,3.9.09,2.88.15,5.82.44,8.93.75,4.13.4,8.4.8,12.6.87v-48c-2.28-.6-4.6-1.19-7-1.78C284,195.06,277,193.51,269.18,192ZM259,228.05c-1,.34-2,.67-2.7,1-11.37,4.72-22.34,10.54-33,16.18l-6.29,3.35c-13.28,7-26.3,13.3-39.73,13.72-.49,0-1,0-1.45,0a39.67,39.67,0,0,1-17.77-4c-5.69-2.87-9.68-7.3-13.89-12l-.67-.75c-5.26-5.83-10.45-11.9-15.46-17.76-4.09-4.79-8.32-9.74-12.57-14.52-7.12-8.05-14.93-15.51-22.49-22.71-2.6-2.5-5.31-5.08-8-7.65-1.94-1.89-4-3.76-5.91-5.58-3.32-3.09-6.76-6.29-9.93-9.66a53.52,53.52,0,0,1-5.77-7.61,13.26,13.26,0,0,1-1.67-4.28,12.68,12.68,0,0,0-1.32-3.61l0-.14c-1.74-12,6.79-20.54,15.38-27.31a105.84,105.84,0,0,1,26.44-15.31,98.1,98.1,0,0,1,29.82-6.71c1.08-.07,2.16-.1,3.18-.1,10.32,0,18.12,3.52,24.56,11.09,8.48,10,13.17,24.19,17.71,38,7.32,22.25,14.9,45.26,38.66,51.37,6.24,1.61,12.79,2.13,19.11,2.64,7.22.57,14.69,1.16,21.77,3.36,5.36,1.67,11.59,5.15,13,9.92l0,.08C270.34,224.22,263.79,226.43,259,228.05Z"/><path class="cls-1" d="M10.74,31.18a126.52,126.52,0,0,1,9.63-8.31c3.94-3,8-4.62,12.27-6.36l3.08-1.27C48.56,9.8,63.9,7.08,77.44,4.68l2.23-.4c2.09-.37,4.16-.76,6.22-1.14C92.29,2,98.52.81,104.8.08H67.2C54.68,3.16,42.5,6.29,30.88,9.44c-6.75,1.82-12.81,4.62-20.26,9.35a79,79,0,0,0-8.27,6.4L0,27.17v13a84.94,84.94,0,0,0,8.68-7.08C9.37,32.45,10.05,31.82,10.74,31.18Z"/><path class="cls-1" d="M0,8.5v15l.55-.46a78.46,78.46,0,0,1,8.58-6.62c7.7-4.9,14-7.8,21-9.71C38.42,4.52,47,2.29,55.72.08H22.4A81.66,81.66,0,0,0,0,8.5Z"/><path class="cls-1" d="M188.77,211.77c-.75-1.58-1.53-3.21-2.19-4.78a221.16,221.16,0,0,1-8.22-21.85c-1.6-5.21-3-10.58-4.35-15.76a249.11,249.11,0,0,0-7.58-25.27c-4.37-11.52-10.59-24-23.59-29.09a30.31,30.31,0,0,0-11.13-2c-7.07,0-15,2-23.48,6a59.11,59.11,0,0,0-18.68,13.46l-.12.13c-2.47,2.67-5.53,6-6.53,9.53a36.91,36.91,0,0,0-1,13.25,16.69,16.69,0,0,1,1.61,4,18.3,18.3,0,0,0,1.35,3.56c1.48,2.65,3.16,5.35,5,8A147.09,147.09,0,0,0,103,187.11c6.52,7.11,13.65,13.84,20.53,20.35,2.8,2.65,5.7,5.39,8.52,8.12,9.17,8.88,19.36,17.75,31.66,22.4a34.58,34.58,0,0,0,11.71,1.93c4,0,11.33-.66,15.48-5.1a11,11,0,0,0,2.78-8.61C193.32,221.32,191,216.46,188.77,211.77Zm-20-12.51c-.53,5.41-1.43,11-6.23,14.17a13.52,13.52,0,0,1-6.57,1.55,28.29,28.29,0,0,1-10.38-2.31c-10.78-4.35-20.32-13.08-29-21.87-8.43-8.53-16.77-18-20.67-29.68-3.1-10.16.63-18.27,4.3-23.29,6.85-9.35,19.29-15.74,31-15.89h.09c1.45.32,3,.53,4.41.73a46.68,46.68,0,0,1,4.89.83l.08,0a43.15,43.15,0,0,1,6.56,4.53,45.1,45.1,0,0,1,9.72,11.48c5.88,9.81,8.26,21.27,9.53,29C168,178.11,169.73,188.89,168.74,199.26Z"/><path class="cls-2" d="M122.28.13c6.14.34,12.38,1.1,18.41,1.83,8.95,1.09,18.2,2.21,27.36,2A73.53,73.53,0,0,0,190,.08h-2.27A72.8,72.8,0,0,1,168,3.27c-9.09.21-18.33-.92-27.25-2-3.45-.42-7-.84-10.49-1.19h-9.12Z"/><path class="cls-2" d="M11.21,31.7a124.76,124.76,0,0,1,9.58-8.28c3.87-2.92,7.87-4.54,12.11-6.27,1-.41,2-.83,3.08-1.27C48.75,10.47,64.06,7.76,77.56,5.36L79.79,5,86,3.83C95.3,2.1,104.2.46,113.46.08H104.8C98.52.81,92.29,2,85.89,3.14c-2.06.38-4.13.77-6.22,1.14l-2.23.4C63.9,7.08,48.56,9.8,35.72,15.24l-3.08,1.27c-4.28,1.74-8.33,3.39-12.27,6.36a126.52,126.52,0,0,0-9.63,8.31c-.69.64-1.37,1.27-2.06,1.89A84.94,84.94,0,0,1,0,40.15V41a81.56,81.56,0,0,0,9.15-7.38Z"/><path class="cls-2" d="M10.62,18.79c7.45-4.73,13.51-7.53,20.26-9.35C42.5,6.29,54.68,3.16,67.2.08H55.72C47,2.29,38.42,4.52,30.16,6.75c-7,1.91-13.33,4.81-21,9.71A78.46,78.46,0,0,0,.55,23.08L0,23.54v3.63l2.35-2A79,79,0,0,1,10.62,18.79Z"/><path class="cls-2" d="M19.53.08A78.49,78.49,0,0,0,0,7.7v.8A81.66,81.66,0,0,1,22.4.08Z"/><path class="cls-2" d="M297.71,11.28V7.17A34.75,34.75,0,0,1,295.06.08H292.9A34.84,34.84,0,0,0,297.71,11.28Z"/><path class="cls-2" d="M277.23,10.89A60.86,60.86,0,0,1,273,.08h-.71a61.56,61.56,0,0,0,4.28,11.13c5,10,12.42,18,21.1,22.91v-.8A53.38,53.38,0,0,1,277.23,10.89Z"/><path class="cls-2" d="M18.52,40.08c6-6.13,12.22-12.46,20.12-15.91,13.25-5.77,28.31-8.66,40-10.53a171.59,171.59,0,0,1,44.52-1.09,194.75,194.75,0,0,1,21,3.32c3.41.73,6.83,1.56,10.2,2.47,1.65.44,3.33.92,4.95,1.4a3.89,3.89,0,0,0,2,.18c.83-.06,1.54-.12,2.05.44l.11.11h.15c2.06,0,4.19.07,6.24.17,4.58.22,9.32.45,13.85-.74a109.91,109.91,0,0,0,19.66-7.36A161.32,161.32,0,0,0,224.49.08h-1.23A159.74,159.74,0,0,1,203,11.92a108.93,108.93,0,0,1-19.53,7.31c-4.43,1.16-9.11.94-13.64.72-2-.1-4.1-.2-6.13-.18a3,3,0,0,0-2.51-.54,3.45,3.45,0,0,1-1.7-.13c-1.67-.5-3.35-1-5-1.43-3.38-.92-6.82-1.75-10.23-2.48a194.14,194.14,0,0,0-21.07-3.33A172.1,172.1,0,0,0,78.48,13c-11.69,1.89-26.8,4.79-40.12,10.59C30.34,27,24.08,33.42,18,39.6,12.32,45.42,6.8,51,0,54.38v.73C7.16,51.66,12.91,45.82,18.52,40.08Z"/><path class="cls-2" d="M13.74,120.86c.61-1.76,1.2-3.5,1.82-5.23l.59-1.68c2.9-8.23,5.89-16.74,12.2-22.59s15.51-7,24.38-8.08c1.84-.22,3.58-.43,5.31-.69,23.22-3.4,49.34-9.13,67-25.7,4.53-4.24,7.33-8.69,8.36-13.24,1.41-6.31-5.73-11.32-7.95-12.71-11.21-7-26.08-8.36-36.57-8.26-16.62.14-30.38,3-40.91,8.57C36.55,37.25,30,46.15,23.8,55.51,18,64.2,11.88,70.11.64,70.68H0v2.08c.25,0,.5,0,.75,0,12.11-.61,18.66-6.87,24.79-16.09S38,38.87,48.94,33.09c10.23-5.39,23.67-8.19,40-8.33,10.22-.09,24.66,1.22,35.44,7.94,1.93,1.21,8.14,5.52,7,10.5-.93,4.13-3.54,8.23-7.74,12.18-17.24,16.17-43,21.79-65.88,25.16-1.7.25-3.42.45-5.26.68-8.76,1-18.7,2.25-25.55,8.61-6.68,6.21-9.76,15-12.74,23.43l-.59,1.68c-.61,1.73-1.21,3.48-1.82,5.24C8.94,128.39,6,136.88,1.63,144.29,1.11,145.16.56,146,0,146.87v3.71c1.21-1.71,2.37-3.45,3.42-5.23C7.92,137.76,10.88,129.16,13.74,120.86Z"/><path class="cls-2" d="M3.65,96A18.75,18.75,0,0,0,0,89.52v1.06a19.73,19.73,0,0,1,3,5.64c3,8.16,2.06,18.87-3,32.66v2C5.67,116.05,6.87,104.63,3.65,96Z"/><path class="cls-2" d="M272.45,272.19c5.39.24,10.94,1.05,16.32,1.83,3,.42,5.94.85,8.94,1.2v-.7c-3-.34-5.92-.77-8.84-1.19-5.4-.78-11-1.59-16.39-1.83-23.65-1.09-49.94,7.56-72.15,23.68-1.16.84-2.26,1.71-3.32,2.61h1.1c.85-.7,1.72-1.38,2.63-2C222.82,279.71,249,271.13,272.45,272.19Z"/><path class="cls-2" d="M272.11,35.25l-2.73-1.8c-8.75-5.82-20.74-13.8-30.59-11.55a65.28,65.28,0,0,0-30.2,15.86,48.93,48.93,0,0,0-15.34,30c-.83,7.1.14,14.27,1.06,21.22l.3,2.26a176.46,176.46,0,0,0,3,17.73c2,8.59,4.89,18.52,10.58,27a39.35,39.35,0,0,0,21,15.66,72.4,72.4,0,0,0,13.6,2.45c1.32.15,2.65.31,4,.48,7.31,1,14.63,1.55,21.74,1.78a177.3,177.3,0,0,0,29.22-1.7v-.7a177.08,177.08,0,0,1-29.2,1.71c-7.09-.23-14.37-.83-21.67-1.78-1.33-.17-2.65-.33-4-.48a72.18,72.18,0,0,1-13.47-2.42,38.6,38.6,0,0,1-20.59-15.39c-5.64-8.36-8.47-18.21-10.49-26.74a174.41,174.41,0,0,1-3-17.66L195,88.87c-.92-6.89-1.88-14-1.06-21,2.54-21.83,20.2-39.6,45-45.25C248.5,20.39,260.35,28.27,269,34c.95.64,1.87,1.25,2.73,1.81l3,2c7.29,4.79,14.79,9.71,23,13V50c-8-3.24-15.43-8.08-22.62-12.79Z"/><path class="cls-2" d="M283.47,55.52l-2.74-1.19c-11.05-4.8-23.58-10.25-35.67-9.29C221.34,46.93,208,71.86,207.47,94.35c-.32,13.64,2.38,24.6,8,32.58,4.82,6.82,12.34,12.18,21.71,15.48,17,6,39,6.2,57.49.57,1-.3,2-.63,3-1v-2.19c-1.21.4-2.42.8-3.62,1.16-18.08,5.5-39.6,5.29-56.18-.54-9-3.16-16.14-8.25-20.71-14.72-5.39-7.61-8-18.15-7.65-31.33.5-21.59,13.17-45.49,35.67-47.29,11.59-.92,23.86,4.42,34.68,9.13l2.75,1.19,3.69,1.6c3.71,1.62,7.52,3.27,11.37,4.81V61.6c-3.56-1.45-7.09-3-10.54-4.48Z"/><path class="cls-2" d="M289.2,279.13c-8.35-1.18-17-2.4-25.65-2.1-12,.41-23.23,4.33-32.68,8.12a102.58,102.58,0,0,0-23.44,12.64H211a105.38,105.38,0,0,1,20.63-10.71c9.27-3.72,20.33-7.57,32-8,8.47-.29,17,.91,25.27,2.08,2.9.41,5.84.82,8.81,1.18v-2.1C294.85,279.93,292,279.53,289.2,279.13Z"/><path class="cls-2" d="M273.68,284.21a84.33,84.33,0,0,0-35.18,5,97.31,97.31,0,0,0-17.93,8.61h1.33a97.22,97.22,0,0,1,16.83-8,83.64,83.64,0,0,1,34.9-4.93c5.86.45,11.78,1.38,17.51,2.27,2.17.34,4.36.68,6.57,1v-.7q-3.25-.48-6.47-1C285.5,285.59,279.57,284.66,273.68,284.21Z"/><path class="cls-2" d="M56.46,64.17a32.64,32.64,0,0,0,10.08,1.49,41.35,41.35,0,0,0,4.9-.29c11.44-1.31,20.72-6.49,24.82-13.87,1.54-2.77,1.71-5.22.5-7.28C94,39.49,84.3,37.81,76.86,37.81a31.84,31.84,0,0,0-3.63.18C63.72,39.1,52.58,43.54,49.8,52.66a6.27,6.27,0,0,0-.51,5.56C50.47,61.27,53.77,63.29,56.46,64.17ZM50.43,53l0-.07C53.12,44.07,64,39.77,73.31,38.68a30.36,30.36,0,0,1,3.55-.18c5.84,0,16.48,1.28,19.3,6.07,1.07,1.84.91,4.06-.51,6.6-4,7.17-13.07,12.23-24.29,13.52a42,42,0,0,1-4.82.28,31.87,31.87,0,0,1-9.86-1.46C54.25,62.72,51,60.79,49.93,58A5.65,5.65,0,0,1,50.43,53Z"/><path class="cls-2" d="M259,63.44c-11,0-20.81,4.41-26.94,12.1a41.13,41.13,0,0,0-8.38,33.57c1.91,5,4.06,10.73,8.83,14.64A47.26,47.26,0,0,0,245,131.07a52.48,52.48,0,0,0,19.43,3.56,62.68,62.68,0,0,0,8.49-.59,73.66,73.66,0,0,0,24.83-8.31v-.8a73.2,73.2,0,0,1-24.92,8.42,61.49,61.49,0,0,1-8.4.59,51.82,51.82,0,0,1-19.18-3.52A46.21,46.21,0,0,1,233,123.21c-4.63-3.79-6.76-9.4-8.61-14.3A40.41,40.41,0,0,1,232.6,76c6-7.52,15.62-11.83,26.4-11.83a40.15,40.15,0,0,1,4.65.27c10.44,1.25,21.59,5.45,34.06,12.81v-.8c-12.41-7.29-23.54-11.45-34-12.69A39.25,39.25,0,0,0,259,63.44Z"/><path class="cls-2" d="M16.81,137.89c4-8.59,8.08-17.48,14.07-24.78,8-9.75,18.47-16.27,29.44-18.34,14.9-2.83,29.67-7.83,42.35-12.3,3.33-1.17,6.77-2.5,10.1-3.79,9.7-3.76,19.73-7.65,29.66-8.76,1.17-.12,2.31-.28,3.42-.45,4-.56,7.81-1.1,12.24.08a29.29,29.29,0,0,1,13.21,7.91c6.62,6.75,9.48,15.05,12.51,23.84,1.07,3.1,2.18,6.32,3.45,9.39l.8,2.75c2.52,8.59,5.12,17.47,9.08,25.69,5.1,10.54,11.7,17.85,19.64,21.7,9.34,4.54,20.69,5,31.68,5.49,3,.12,5.78.24,8.52.44,4.54.32,9.15.76,13.61,1.18,8.87.84,18,1.7,27.12,1.76V169c-9.1-.06-18.21-.92-27-1.76-4.47-.41-9.08-.86-13.63-1.18-2.75-.2-5.57-.32-8.55-.45-10.9-.46-22.19-.94-31.4-5.41-7.79-3.79-14.29-11-19.31-21.38-3.94-8.17-6.54-17-9-25.59l-.82-2.79c-1.27-3.08-2.37-6.28-3.44-9.38-2.92-8.48-5.94-17.23-12.67-24.09a30,30,0,0,0-13.54-8.1c-4.56-1.22-8.42-.67-12.51-.09-1.1.15-2.24.31-3.4.45-10,1.11-20.09,5-29.83,8.79-3.32,1.28-6.76,2.62-10.08,3.79C89.78,86.28,75,91.27,60.19,94.08c-11.13,2.11-21.73,8.71-29.85,18.59C24.29,120,20.17,129,16.18,137.61,11.76,147.17,7.23,157,0,164.72v1C7.59,157.85,12.26,147.75,16.81,137.89Z"/><path class="cls-2" d="M221.49,275.76c1.8-.74,3.65-1.56,5.44-2.36a93.44,93.44,0,0,1,12-4.69,163.39,163.39,0,0,1,16.43-3.56l.82-.15c10.35-1.88,20.93-.64,31.17.55,3.4.39,6.9.79,10.38,1.08v-.69c-3.45-.29-6.92-.69-10.3-1.08-10.29-1.2-20.92-2.44-31.38-.54l-.82.15A163.61,163.61,0,0,0,238.72,268a93.16,93.16,0,0,0-12.07,4.73c-1.79.8-3.63,1.62-5.43,2.35-13.16,5.4-26.85,11.55-36.88,22.14-.17.17-.32.35-.48.53h.94l0-.06C194.78,287.25,208.39,281.13,221.49,275.76Z"/><path class="cls-2" d="M286.77,89.86c-5.25-5.53-14.48-8-21.31-8a23.61,23.61,0,0,0-2.71.14c-6.62.7-12.44,3.72-16,8.29a18.83,18.83,0,0,0-3.63,14.64c2.55,8.81,11.49,14.51,22.77,14.51,11.83,0,24.16-6.58,24.85-19.15A13.61,13.61,0,0,0,286.77,89.86ZM290,100.25c-.66,12.14-12.65,18.49-24.15,18.49-11,0-19.64-5.51-22.09-14a18.16,18.16,0,0,1,3.49-14.06c3.45-4.43,9.11-7.35,15.53-8a24.69,24.69,0,0,1,2.64-.13c6.68,0,15.7,2.4,20.81,7.79A12.94,12.94,0,0,1,290,100.25Z"/><path class="cls-2" d="M111.85,277.73c9.88-11.78,6.68-25.05,2.78-35.29a82.2,82.2,0,0,0-19.7-29.84c-6-5.8-18.09-15.73-31.17-17.11a27.2,27.2,0,0,0-17.35,4c-5.61,3.56-8.27,11.23-10.41,17.39l-.09.26c-2,5.72-3.72,11.59-5.39,17.27C28.28,242,26,249.93,23,257.52l-.13.35c-5.16,13.17-10,25.65-10.5,39.92H13c.48-14.14,5.33-26.57,10.46-39.68l.13-.33c3-7.62,5.31-15.53,7.56-23.18,1.67-5.67,3.39-11.54,5.37-17.24l.1-.26c2.09-6,4.72-13.6,10.12-17a26.58,26.58,0,0,1,16.9-3.91c12.88,1.36,24.8,11.19,30.76,16.93A81.45,81.45,0,0,1,114,242.68c3.83,10.07,7,23.1-2.66,34.61-5.21,6.21-12,11.07-18.64,15.77-2.16,1.53-4.36,3.11-6.51,4.73h1.16c1.9-1.42,3.84-2.81,5.75-4.17C99.72,288.9,106.59,284,111.85,277.73Z"/><path class="cls-2" d="M7.9,173.25c9.58-8.65,14.53-19.8,19.17-31.42A69,69,0,0,1,48.53,113c8.22-6.33,18.24-9.49,27.92-12.56,3.34-1,6.8-2.14,10.1-3.34,5.29-1.38,10.91-3.35,16.85-5.44,20.3-7.14,43.31-15.23,60.69-.83,11.47,9.5,16.38,24.38,21.12,38.75,1.77,5.37,3.44,10.44,5.44,15.25,3.66,8.83,9.15,19.74,19.23,25.77,9.34,5.57,21.82,5.87,32.83,6.13,3.18.08,6.19.14,9.09.33,9.63.61,19.21,2.09,28.47,3.51,5.48.84,11.14,1.71,16.78,2.4l.66.08v-.7l-.57-.07c-5.63-.68-11.29-1.56-16.76-2.4-9.28-1.43-18.88-2.91-28.54-3.52-2.91-.18-5.92-.25-9.12-.33-11.46-.27-23.3-.54-32.48-6-9.9-5.93-15.33-16.71-19-25.44-2-4.8-3.65-9.85-5.42-15.2-4.77-14.48-9.71-29.44-21.34-39.08-17.69-14.64-40.89-6.48-61.35.72-5.94,2.08-11.54,4-16.84,5.43-3.31,1.2-6.76,2.29-10.1,3.34-9.74,3.08-19.82,6.27-28.13,12.67a69.7,69.7,0,0,0-21.69,29.09c-4.6,11.54-9.52,22.61-19,31.17A59.41,59.41,0,0,1,0,178.41v.84A61,61,0,0,0,7.9,173.25Z"/><path class="cls-2" d="M183.75,285.92a149.69,149.69,0,0,1,18.12-9c4.37-1.94,8.89-3.93,13.18-6.2,11.33-6,25-10.62,40.64-13.82,9.95-2,20.18-.9,30.06.17,3.93.43,8,.87,12,1.11v-.69c-4-.25-8-.68-11.88-1.1-9.94-1.09-20.23-2.21-30.28-.16-15.7,3.2-29.44,7.87-40.82,13.87-4.27,2.26-8.78,4.25-13.15,6.18a153.32,153.32,0,0,0-18.2,9.05c-6,3.72-10.56,7.82-13.66,12.46h.86A42.68,42.68,0,0,1,183.75,285.92Z"/><path class="cls-2" d="M285.11,245.59c-3.11-.31-6.05-.6-8.93-.75-1.29-.06-2.6-.09-3.9-.09-21.5,0-41.63,9-61.11,17.68-3.38,1.5-6.87,3.06-10.28,4.54-11.24,4.84-23.43,9.69-36.47,12.35l-2.42.53a44.27,44.27,0,0,1-9.34,1.4,10.51,10.51,0,0,1-7.11-2.21c-3.23-2.78-4.7-6.87-6.12-10.84-.48-1.35-1-2.74-1.53-4.06-10.08-23.79-23.64-43.94-40.32-59.89a128.6,128.6,0,0,0-29.07-21.16,111,111,0,0,0-17.34-7.34,23.1,23.1,0,0,1-7.88-3.91,11.79,11.79,0,0,1-3.5-4.92c-.28-.6-.57-1.2-.91-1.85a48.33,48.33,0,0,1,9-33c6.64-9.28,17.3-15.36,27.83-20.55a190.29,190.29,0,0,1,33-12.23c1.61-.45,3.27-1,5-1.45,7.33-2.19,15.63-4.67,23.36-4.67a29.4,29.4,0,0,1,7.46.89c4.55,1.19,7.82,2.13,11.61,4.26a25.61,25.61,0,0,1,5.65,5c.57.6,1.14,1.2,1.71,1.77,4.07,4.08,6.83,9.28,9.2,14.3a206.26,206.26,0,0,1,7.9,20.34c1.42,4,2.88,8.24,4.47,12.3,5.17,13.19,11.07,22.48,18.56,29.24,5.27,4.75,14.81,7.32,21.13,7.32h11.1c.8,0,1.77-.08,2.79-.16,1.19-.09,2.44-.19,3.63-.19a8.73,8.73,0,0,1,3.79.63,13.28,13.28,0,0,0,5.78.9h1.69l1.63,0a18.82,18.82,0,0,1,3.22.22c3.83.69,7.38,1.37,10.86,2.06,7.81,1.55,14.86,3.1,21.54,4.73,2.39.59,4.71,1.18,7,1.78v-.72c-2.23-.58-4.5-1.16-6.83-1.73-6.69-1.64-13.74-3.19-21.57-4.74-3.48-.69-7-1.36-10.87-2.07a20.36,20.36,0,0,0-3.34-.22h-1.64c-.56,0-1.12,0-1.68,0a13,13,0,0,1-5.46-.83,9.24,9.24,0,0,0-4.11-.7c-1.22,0-2.48.1-3.69.19-1,.08-2,.15-2.73.15H224.68c-6.18,0-15.51-2.51-20.66-7.15-7.4-6.68-13.24-15.89-18.37-29-1.59-4.05-3.05-8.22-4.46-12.27a209.5,209.5,0,0,0-7.93-20.4c-2.4-5.08-5.19-10.35-9.34-14.5-.56-.56-1.12-1.15-1.69-1.76a26.17,26.17,0,0,0-5.82-5.07c-3.86-2.17-7.17-3.13-11.78-4.33a30.22,30.22,0,0,0-7.63-.92c-7.83,0-16.18,2.5-23.56,4.7-1.7.51-3.35,1-5,1.45A191.15,191.15,0,0,0,75.36,110.9C64.75,116.13,54,122.26,47.28,131.66a49,49,0,0,0-9.08,33.55l0,.13c.35.65.63,1.27.92,1.87a12.38,12.38,0,0,0,3.7,5.18,23.67,23.67,0,0,0,8.1,4,110.91,110.91,0,0,1,17.23,7.29A128.28,128.28,0,0,1,97.1,204.75c16.61,15.89,30.12,36,40.15,59.66.56,1.31,1.05,2.69,1.53,4,1.45,4,2.94,8.23,6.32,11.12a11.13,11.13,0,0,0,7.56,2.39,44.85,44.85,0,0,0,9.5-1.43l2.41-.52c13.09-2.68,25.32-7.54,36.59-12.4,3.42-1.47,6.91-3,10.29-4.54,19.41-8.66,39.47-17.62,60.83-17.62,1.29,0,2.58,0,3.86.09,2.86.15,5.79.44,8.9.74,4.16.41,8.44.81,12.67.88v-.69C293.51,246.39,289.24,246,285.11,245.59Z"/><path class="cls-2" d="M257.06,209c-7.08-2.2-14.55-2.79-21.77-3.36-6.32-.51-12.87-1-19.11-2.64-23.76-6.11-31.34-29.12-38.66-51.37-4.54-13.76-9.23-28-17.71-37.95-6.44-7.57-14.24-11.09-24.56-11.09-1,0-2.1,0-3.18.1a98.1,98.1,0,0,0-29.82,6.71,105.84,105.84,0,0,0-26.44,15.31C67.22,131.5,58.69,140,60.43,152l0,.14a12.68,12.68,0,0,1,1.32,3.61,13.26,13.26,0,0,0,1.67,4.28,53.52,53.52,0,0,0,5.77,7.61c3.17,3.37,6.61,6.57,9.93,9.66,2,1.82,4,3.69,5.91,5.58,2.64,2.57,5.35,5.15,8,7.65,7.56,7.2,15.37,14.66,22.49,22.71,4.25,4.78,8.48,9.73,12.57,14.52,5,5.86,10.2,11.93,15.46,17.76l.67.75c4.21,4.69,8.2,9.12,13.89,12a39.67,39.67,0,0,0,17.77,4c.48,0,1,0,1.45,0,13.43-.42,26.45-6.73,39.73-13.72l6.29-3.35c10.62-5.64,21.59-11.46,33-16.18.74-.3,1.69-.63,2.7-1,4.78-1.62,11.33-3.83,11.08-9l0-.08C268.65,214.17,262.42,210.69,257.06,209Zm1.73,18.37c-1,.35-2,.67-2.74,1-11.42,4.72-22.4,10.57-33,16.21l-6.3,3.34c-13.2,7-26.14,13.24-39.42,13.65-.48,0-1,0-1.43,0a39,39,0,0,1-17.46-3.92c-5.57-2.82-9.51-7.2-13.68-11.84l-.67-.74c-5.25-5.83-10.44-11.89-15.46-17.76-4.09-4.78-8.32-9.73-12.56-14.53-7.15-8.07-15-15.53-22.53-22.75-2.61-2.49-5.31-5.06-8-7.64-1.95-1.89-4-3.77-5.93-5.59-3.31-3.09-6.74-6.27-9.9-9.62a53.94,53.94,0,0,1-5.69-7.53,12.6,12.6,0,0,1-1.58-4.06,14,14,0,0,0-1.36-3.75c-1.66-11.61,6.72-20,15.13-26.6a104.75,104.75,0,0,1,26.27-15.2,97.34,97.34,0,0,1,29.6-6.67c1.07-.06,2.13-.1,3.14-.1,10.1,0,17.74,3.45,24,10.85,8.39,9.86,13.05,24,17.56,37.72,7.39,22.43,15,45.62,39.15,51.82,6.31,1.62,12.88,2.15,19.24,2.65,7.18.57,14.6,1.16,21.62,3.35,4.93,1.53,11.16,4.92,12.53,9.41C269.59,223.74,263.34,225.85,258.79,227.39Z"/><path class="cls-2" d="M189.4,211.47c-.78-1.64-1.52-3.19-2.18-4.75a219.7,219.7,0,0,1-8.2-21.78c-1.59-5.2-3-10.56-4.34-15.73a251.44,251.44,0,0,0-7.6-25.35c-4.42-11.66-10.73-24.28-24-29.49a31.05,31.05,0,0,0-11.39-2c-7.18,0-15.17,2-23.77,6A59.69,59.69,0,0,0,89,132l-.12.13c-2.51,2.72-5.65,6.12-6.69,9.81a37.83,37.83,0,0,0-1,13.58v.09l0,.07a15.59,15.59,0,0,1,1.57,3.88,19.12,19.12,0,0,0,1.41,3.69c1.49,2.67,3.18,5.38,5,8.08a148.47,148.47,0,0,0,13.15,16.28C109,194.7,116.15,201.45,123,208c2.81,2.65,5.69,5.38,8.51,8.1,9.23,8.94,19.49,17.86,31.91,22.55a34.92,34.92,0,0,0,11.95,2c4.12,0,11.66-.7,16-5.33a11.66,11.66,0,0,0,3-9.12C194,221.14,191.66,216.23,189.4,211.47Zm1.49,23.34c-4.15,4.44-11.48,5.1-15.48,5.1A34.58,34.58,0,0,1,163.7,238c-12.3-4.65-22.49-13.52-31.66-22.4-2.82-2.73-5.72-5.47-8.52-8.12-6.88-6.51-14-13.24-20.53-20.35a147.09,147.09,0,0,1-13.09-16.2c-1.83-2.68-3.51-5.38-5-8a18.3,18.3,0,0,1-1.35-3.56,16.69,16.69,0,0,0-1.61-4,36.91,36.91,0,0,1,1-13.25c1-3.53,4.06-6.86,6.53-9.53l.12-.13A59.11,59.11,0,0,1,108.23,119c8.51-4,16.41-6,23.48-6a30.31,30.31,0,0,1,11.13,2c13,5.11,19.22,17.57,23.59,29.09A249.11,249.11,0,0,1,174,169.38c1.35,5.18,2.75,10.55,4.35,15.76A221.16,221.16,0,0,0,186.58,207c.66,1.57,1.44,3.2,2.19,4.78,2.24,4.69,4.55,9.55,4.9,14.43A11,11,0,0,1,190.89,234.81Z"/><path class="cls-2" d="M156.88,139.56a45.1,45.1,0,0,0-9.72-11.48,43.15,43.15,0,0,0-6.56-4.53l-.08,0a46.68,46.68,0,0,0-4.89-.83c-1.45-.2-3-.41-4.41-.73h-.09c-11.67.15-24.11,6.54-31,15.89-3.67,5-7.4,13.13-4.3,23.29,3.9,11.66,12.24,21.15,20.67,29.68,8.7,8.79,18.24,17.52,29,21.87A28.29,28.29,0,0,0,155.94,215a13.52,13.52,0,0,0,6.57-1.55c4.8-3.21,5.7-8.76,6.23-14.17,1-10.37-.77-21.15-2.33-30.68C165.14,160.83,162.76,149.37,156.88,139.56Zm11.17,59.63c-.51,5.25-1.38,10.63-5.9,13.64-4,2.18-9.66,1.88-16.34-.81-10.66-4.29-20.13-13-28.77-21.71-8.38-8.47-16.66-17.89-20.51-29.4-3-9.88.62-17.78,4.2-22.67,6.72-9.18,18.92-15.44,30.38-15.61,1.46.34,3,.54,4.43.73a46.17,46.17,0,0,1,4.77.82,42.93,42.93,0,0,1,6.41,4.43,44.53,44.53,0,0,1,9.57,11.31c5.82,9.71,8.17,21.08,9.43,28.78C167.27,178.17,169,188.91,168.05,199.19Z"/><path class="cls-2" d="M278.12,290.75a80.52,80.52,0,0,0-40.27,5.16c-1.44.57-2.86,1.2-4.28,1.88h1.66c1-.44,1.92-.85,2.88-1.24A79.7,79.7,0,0,1,278,291.44c5.14.64,10.34,1.6,15.36,2.54l4.32.79v-.71l-4.19-.77C288.48,292.36,283.28,291.39,278.12,290.75Z"/><path class="cls-2" d="M151.61,148.67a41.42,41.42,0,0,0-6.46-9c-2.81-3-5.64-4.14-9.22-5.64l-.6-.25-.07,0a21.27,21.27,0,0,0-4.07-.39,24.62,24.62,0,0,0-18.07,8.35,21,21,0,0,0-5.46,16.53c1.14,9.5,6.44,16.72,10.68,21.11l.78.81c4.83,5,9.82,10.17,16.17,13.18a21.35,21.35,0,0,0,9,2.14h.14c4.81,0,7.1-1.8,9.88-5.34,3.78-4.84,3.49-14.73,2.93-21.76A49.76,49.76,0,0,0,151.61,148.67Zm2.11,41.08c-2.7,3.44-4.78,5.08-9.33,5.08h-.14a20.52,20.52,0,0,1-8.65-2.08c-6.25-3-11.19-8.08-16-13l-.78-.8c-4.17-4.31-9.37-11.4-10.49-20.71a20.27,20.27,0,0,1,5.29-16,23.93,23.93,0,0,1,17.55-8.11,20.22,20.22,0,0,1,3.9.37l.57.24c3.51,1.47,6.28,2.63,9,5.48A40.41,40.41,0,0,1,151,149a49.07,49.07,0,0,1,5.51,19.48C157.05,175.38,157.36,185.1,153.72,189.75Z"/><path class="cls-2" d="M259.36,297.79H277c-2-.22-4-.4-6.08-.49A71.11,71.11,0,0,0,259.36,297.79Z"/><path class="cls-2" d="M134.84,153.25a6.21,6.21,0,0,0-6.88.91c-2.85,2.14-2.59,5.32-2.34,8.38,0,.42.07.85.1,1.27l0,.1c1.64,4.32,5.38,8.67,10,8.67a4.61,4.61,0,0,0,.52,0,4.72,4.72,0,0,0,3.54-2c1.74-2.28,2.15-6,1.64-8.48A12.35,12.35,0,0,0,134.84,153.25Zm4.44,16.91a4.05,4.05,0,0,1-3,1.71c-4.54.32-8.2-3.93-9.83-8.15l-.09-1.23c-.25-3-.48-5.86,2.05-7.78a5.55,5.55,0,0,1,6.18-.83,11.69,11.69,0,0,1,6.24,8.36C141.25,164.53,140.87,168.08,139.28,170.16Z"/><path class="cls-2" d="M9.16,195.44h.66c3.42.05,4.81.62,7.09,2.89,1.37,1.37,1.82,3.39,2.29,5.53a26.83,26.83,0,0,0,.79,3c.16,16-2.34,29.52-7.86,42.61-1.26,3-2.6,6-3.9,8.88A188.26,188.26,0,0,0,0,278.94v8.2c2-9.75,6-18.6,10.14-27.9,1.3-2.91,2.64-5.92,3.91-8.93,5.66-13.41,8.2-27.27,8-43.61v-.18l-.06-.16a25.13,25.13,0,0,1-.77-2.94c-.52-2.34-1-4.75-2.86-6.55-2.66-2.65-4.57-3.44-8.53-3.51A47.57,47.57,0,0,0,0,194.3v2.12A45.56,45.56,0,0,1,9.16,195.44Z"/><path class="cls-2" d="M100.28,265.26c4.62-9.24,4.45-18.61-.55-29.48-4.08-8.85-10.28-16.16-17.48-20.59a31,31,0,0,0-11.71-4.36,21.7,21.7,0,0,0-3.25-.25c-4.17,0-7.4,1.32-11.49,3.18l-.1.07C47.11,222,43.25,234.5,39.84,245.57l-.27.88a254.81,254.81,0,0,0-8.31,38v.09c.6,4.76,2.26,9.76,5.21,13.25h.92c-3.09-3.37-4.82-8.46-5.44-13.29a254.54,254.54,0,0,1,8.29-37.85l.27-.88c3.37-11,7.2-23.4,15.63-31.4,4-1.81,7.13-3.1,11.15-3.1a21.86,21.86,0,0,1,3.15.25,30.24,30.24,0,0,1,11.44,4.26c7.09,4.35,13.2,11.56,17.22,20.29,4.9,10.67,5.08,19.84.56,28.88-5.09,10.18-15.6,17.42-24,23.24a91.08,91.08,0,0,1-17.44,9.6H60a94,94,0,0,0,16.05-9C84.52,282.89,95.11,275.6,100.28,265.26Z"/><path class="cls-2" d="M1.25,233.8A28.06,28.06,0,0,1,0,241v2.28a32.26,32.26,0,0,0,2-9.42C2.08,229.1,2,225,0,221.66v1.57C1.29,226.21,1.37,229.77,1.25,233.8Z"/><path class="cls-2" d="M60.48,257.62a8.94,8.94,0,0,0,7.79,4.65h0a12.5,12.5,0,0,0,8.18-3.42c5.75-5.13,7.1-11.9,3.7-18.58-1.76-3.46-4.84-5.53-8.22-5.53A10.24,10.24,0,0,0,64,239c-4.12,5.28-5.59,12.92-3.57,18.59Zm4.1-18.22a9.39,9.39,0,0,1,7.36-4c3.16,0,5.94,1.88,7.6,5.15,3.24,6.38,1.95,12.85-3.55,17.75a11.79,11.79,0,0,1-7.71,3.25h0a8.13,8.13,0,0,1-7.18-4.29C59.17,251.84,60.6,244.49,64.58,239.4Z"/><path class="cls-2" d="M144.47,289.62c-2.63-2.56-5.85-2.15-9.26-1.7l-.22,0c-4.78.62-9.44,2.56-14,4.43l-1.53.64c-3.68,1.51-7.12,3.1-10.39,4.77h1.54c2.88-1.43,5.91-2.81,9.12-4.13l1.53-.64c4.47-1.85,9.1-3.77,13.77-4.38l.23,0c3.24-.43,6.3-.82,8.68,1.51a20.7,20.7,0,0,1,4.68,7.39,2.31,2.31,0,0,1,.1.28h.74c-.07-.18-.12-.36-.19-.54A21.64,21.64,0,0,0,144.47,289.62Z"/><path class="cls-3" d="M210.82,44a16,16,0,0,0-16.1,16V112.5a76.37,76.37,0,0,0-47.36-16.17,78.82,78.82,0,0,0,0,157.57,75.75,75.75,0,0,0,47.36-16.11,16.23,16.23,0,0,0,16.1,15.5,16,16,0,0,0,16-16V60a15.83,15.83,0,0,0-15.62-16Zm-16.1,129v4.33a46,46,0,0,1-91.88-2.17A46.75,46.75,0,0,1,148,126.8l.91,0A46.29,46.29,0,0,1,194.72,172.92Z"/></g></g></svg>