<?xml version="1.0" encoding="utf-8"?>
<!-- Generator: Adobe Illustrator 25.0.1, SVG Export Plug-In . SVG Version: 6.00 Build 0)  -->
<svg version="1.1" id="Layer_1" xmlns="http://www.w3.org/2000/svg" xmlns:xlink="http://www.w3.org/1999/xlink" x="0px" y="0px"
	 viewBox="0 0 168 109.6" style="enable-background:new 0 0 168 109.6;" xml:space="preserve">
<style type="text/css">
	.st0{fill:#231F20;}
</style>
<g id="Layer_2_1_">
	<g id="Layer_1-2">
		<path class="st0" d="M167.9,67.1c0,7.1-5.7,12.8-12.7,12.8H91.4c-2.8,0-5,2.3-5,5v14.8l6.2-6.7c0.9-1,2.5-1,3.5-0.1
			c1,0.9,1.1,2.5,0.1,3.5L84,109.6L71.8,96.4c0,0,0,0,0,0c-0.9-1-0.9-2.6,0.2-3.5c1-0.9,2.6-0.9,3.5,0.1l6.2,6.7V84.9
			c0-5.5,4.4-9.9,9.9-9.9h63.7c2,0,4-0.8,5.4-2.1c3.2-3,3.3-8,0.4-11.2L121.8,20c-0.1-0.1-0.2-0.2-0.3-0.3c-3.2-3-8.2-2.8-11.2,0.3
			L95.9,35.3L69.6,7.3c0,0,0,0-0.1-0.1c-3.2-3.1-8.3-3.1-11.4,0.1L7,61.7c-1.4,1.5-2.1,3.4-2.1,5.4c0,4.4,3.5,7.9,7.9,7.9h37.8
			c1.2,0.1,2.2,1.1,2.3,2.3c0.1,1.3-0.9,2.5-2.3,2.6H12.8c-3.2,0-6.4-1.2-8.7-3.5c-5.1-4.8-5.4-12.9-0.6-18L54.6,4
			c0.2-0.2,0.4-0.4,0.5-0.5c5.1-4.8,13.2-4.6,18,0.5l22.7,24.2l10.8-11.5c2.4-2.6,5.7-4,9.2-4h0.1c3.5,0,6.9,1.4,9.3,4l39.2,41.7h0
			C166.7,60.7,167.9,63.8,167.9,67.1z"/>
		<path class="st0" d="M50.5,33.1L50.5,33.1c-1.4,0-2.4,1-2.4,2.4v7.8c-2-1.6-4.5-2.4-7-2.4c-6.4,0.2-11.5,5.5-11.3,12
			c0.2,6.2,5.1,11.1,11.3,11.3c2.5,0,5-0.8,7-2.4c0.1,1.3,1.1,2.3,2.4,2.3c1.3,0,2.4-1.1,2.4-2.4V35.4
			C52.8,34.1,51.8,33.1,50.5,33.1z M48,52.8c-0.1,3.8-3.2,6.7-7,6.6c-3.8-0.1-6.7-3.2-6.6-7c-0.1-3.8,2.9-7,6.7-7.1h0.1
			c3.7,0,6.8,3.1,6.8,6.8V52.8z"/>
		<path class="st0" d="M70.6,57.3L70.6,57.3c-0.2,3.9-3.4,6.9-7.3,6.8c-3.9,0-7.3-2.7-7.3-5.8c0,0,0,0,0,0c0-1.2,1-2.2,2.2-2.2
			c1,0,1.8,0.6,2.1,1.6c0.4,1.3,1.6,2.2,3,2.1c0,0,0.1,0,0.1,0c1.3,0,2.4-1,2.4-2.3c0-1.4-0.9-2.2-3.3-3.1c-2.6-0.8-6.2-2.1-6.2-6.8
			c0-0.1,0-0.2,0-0.3c0.2-3.7,3.3-6.6,7.1-6.4c3.9,0,7.1,2.5,7.1,5.7v0c0,1.2-1,2.2-2.2,2.2c-1,0-1.9-0.7-2.1-1.7
			c-0.4-1.1-1.6-1.9-2.8-1.8c-0.1,0-0.1,0-0.2,0c-1.3,0-2.3,1.1-2.2,2.3c0,1.5,1.1,2.1,3.9,3C67.3,51.3,70.6,52.8,70.6,57.3z"/>
		<path class="st0" d="M93.4,51v10.6c0,1.3-1,2.4-2.4,2.4h-0.1c-1.3,0-2.3-1.1-2.3-2.4V51c0-3.5-1.9-5.7-5-5.7c-3.1,0-5,2.2-5,5.7
			v10.6c0,1.3-1.1,2.4-2.4,2.4h0c-1.3,0-2.3-1.1-2.3-2.4V51c0-6,4-10.2,9.8-10.2C89.3,40.8,93.3,45,93.4,51z"/>
		<path class="st0" d="M117.3,33.1L117.3,33.1c-1.4,0-2.5,1.1-2.5,2.4v7.8c-5-3.9-12.1-2.9-16,2c-1.6,2.1-2.4,4.6-2.4,7.2
			c-0.1,6.3,4.9,11.5,11.2,11.7h0.2c2.5,0,5-0.8,7-2.4c0,1.3,1.1,2.3,2.4,2.3c1.3,0,2.4-1.1,2.4-2.4V35.4
			C119.7,34.1,118.6,33.1,117.3,33.1z M114.9,52.8c-0.4,3.7-3.7,6.5-7.4,6.1s-6.5-3.7-6.1-7.4c0.3-3.5,3.3-6.2,6.8-6.2
			c3.7,0,6.8,3.1,6.8,6.8V52.8z"/>
		<path class="st0" d="M135.2,43.1c0,1.2-1,2.2-2.2,2.2c-2.8,0-4.5,1.9-4.5,5.1v11.2c0,1.3-1.1,2.4-2.4,2.4h0
			c-1.3,0-2.3-1.1-2.3-2.4V50.4c0-5.8,3.7-9.6,9.2-9.6C134.2,40.8,135.2,41.8,135.2,43.1z"/>
	</g>
</g>
</svg>
