<?xml version="1.0" encoding="utf-8"?>
<!-- Generator: Adobe Illustrator 25.1.0, SVG Export Plug-In . SVG Version: 6.00 Build 0)  -->
<svg version="1.1" id="Layer_1" xmlns="http://www.w3.org/2000/svg" xmlns:xlink="http://www.w3.org/1999/xlink" x="0px" y="0px"
	 viewBox="0 0 168 109.6" style="enable-background:new 0 0 168 109.6;" xml:space="preserve">
<g id="Layer_2_1_">
	<g id="Layer_1-2">
		<path d="M164.5,58.4l-39.2-41.7c-2.4-2.6-5.8-4-9.3-4l0,0c-3.5,0-6.9,1.4-9.3,4L95.9,28.2L73.2,4c-4.8-5.1-12.9-5.4-18-0.6
			c-0.2,0.2-0.4,0.4-0.6,0.6L3.5,58.4c-4.8,5.1-4.6,13.2,0.6,18c2.4,2.2,5.5,3.4,8.7,3.5h37.8c1.3-0.1,2.4-1.2,2.3-2.6
			c-0.1-1.2-1-2.2-2.3-2.3H12.8c-4.4,0-7.9-3.5-7.9-7.9c0-2,0.8-4,2.1-5.4L58.1,7.3c3.1-3.2,8.3-3.2,11.4-0.1c0,0,0.1,0.1,0.1,0.1
			l26.3,27.9L110.3,20c3-3.2,8-3.3,11.2-0.3c0.1,0.1,0.2,0.2,0.3,0.3L161,61.7c3,3.2,2.8,8.2-0.4,11.2c-1.5,1.4-3.4,2.1-5.4,2.1
			H91.5c-5.5,0-9.9,4.4-9.9,9.9v14.8L75.4,93c-0.9-1-2.5-1.1-3.5-0.1c-1,0.9-1.1,2.5-0.2,3.5c0,0,0,0,0,0L84,109.6l12.3-13.2
			c0.9-1,0.9-2.6-0.1-3.5c-1-0.9-2.6-0.8-3.5,0.1l-6.2,6.7V84.9c0-2.8,2.2-5,5-5.1h63.7c7,0,12.8-5.7,12.7-12.8
			C167.9,63.8,166.7,60.7,164.5,58.4L164.5,58.4z"/>
		<path d="M50.4,33.1c-1.3,0-2.4,1.1-2.4,2.4c0,0,0,0,0,0v7.8c-2-1.6-4.5-2.4-7-2.4c-6.4,0.2-11.5,5.6-11.3,12
			C29.9,59,34.9,63.9,41,64.1c2.5,0,5-0.8,7-2.4c0.1,1.3,1.1,2.3,2.4,2.3c1.3,0,2.4-1.1,2.4-2.4c0,0,0,0,0-0.1V35.4
			C52.8,34.1,51.8,33.1,50.4,33.1C50.5,33.1,50.5,33.1,50.4,33.1z M48,52.1v0.6c-0.1,3.8-3.2,6.7-7,6.6c-3.8-0.1-6.7-3.2-6.6-7
			c-0.1-3.8,2.9-7,6.7-7.1c0,0,0.1,0,0.1,0C45,45.3,48,48.4,48,52.1z"/>
		<path d="M64.8,50.5c-2.8-0.9-3.9-1.5-3.9-3c0-1.3,1-2.3,2.2-2.3c0.1,0,0.1,0,0.2,0c1.2-0.1,2.3,0.7,2.8,1.8c0.2,1,1.1,1.7,2.1,1.7
			c1.2,0,2.2-1,2.2-2.2c0,0,0,0,0,0c0-3.1-3.2-5.7-7.1-5.7c-3.7-0.2-6.9,2.7-7.1,6.4c0,0.1,0,0.2,0,0.3c0,4.8,3.6,6,6.2,6.8
			c2.4,0.8,3.3,1.7,3.3,3.1c0,1.3-1.1,2.3-2.4,2.3c0,0-0.1,0-0.1,0c-1.4,0.1-2.6-0.8-3-2.1C60,56.6,59.2,56,58.2,56
			C57,56,56,57,56,58.2c0,0,0,0,0,0c0,3.2,3.3,5.8,7.3,5.8c3.9,0.2,7.1-2.8,7.3-6.7c0,0,0,0,0-0.1C70.6,52.8,67.3,51.3,64.8,50.5z"
			/>
		<path d="M83.5,40.8c-5.7,0-9.8,4.2-9.8,10.2v10.6c0,1.3,1,2.4,2.3,2.4c0,0,0,0,0.1,0c1.3,0,2.4-1.1,2.4-2.4V51
			c0-3.5,1.9-5.7,5-5.7s5,2.2,5,5.7v10.6c0,1.3,1,2.4,2.3,2.4c0,0,0.1,0,0.1,0c1.3,0,2.4-1.1,2.4-2.4V51
			C93.3,45,89.3,40.8,83.5,40.8z"/>
		<path d="M117.2,33.1c-1.3,0-2.4,1.1-2.4,2.4l0,0v7.8c-5-3.9-12.1-2.9-16,2c-1.6,2.1-2.4,4.6-2.4,7.2c-0.1,6.3,4.9,11.5,11.2,11.6
			c0.1,0,0.2,0,0.2,0c2.5,0,5-0.8,7-2.4c0,1.3,1.1,2.3,2.4,2.3c1.3,0,2.4-1.1,2.4-2.4c0,0,0,0,0-0.1V35.4
			C119.6,34.1,118.6,33.1,117.2,33.1C117.3,33.1,117.3,33.1,117.2,33.1z M114.9,52.1v0.6c-0.4,3.7-3.7,6.5-7.4,6.1
			c-3.7-0.4-6.5-3.7-6.1-7.4c0.3-3.5,3.3-6.2,6.8-6.2C111.8,45.3,114.9,48.4,114.9,52.1z"/>
		<path d="M133,40.8c-5.5,0-9.2,3.9-9.2,9.6v11.2c0,1.3,1,2.4,2.3,2.4c0,0,0,0,0,0c1.3,0,2.4-1.1,2.4-2.4V50.4
			c0-3.2,1.6-5.1,4.5-5.1c1.2,0,2.2-1,2.2-2.2C135.2,41.8,134.2,40.8,133,40.8z"/>
	</g>
</g>
</svg>
