<svg xmlns="http://www.w3.org/2000/svg" viewBox="0 0 167.99 109.59"><defs><style>.cls-1{fill:#fff;}</style></defs><g id="Layer_2" data-name="Layer 2"><g id="Layer_1-2" data-name="Layer 1"><path class="cls-1" d="M164.5,58.36,125.32,16.68a12.65,12.65,0,0,0-9.29-4h0a12.65,12.65,0,0,0-9.29,4L95.9,28.21,73.16,4A12.76,12.76,0,0,0,54.57,4L3.49,58.36a12.76,12.76,0,0,0,9.29,21.49H50.56a2.43,2.43,0,0,0,0-4.85H12.78A7.91,7.91,0,0,1,7,61.68L58.11,7.34a8.09,8.09,0,0,1,11.52,0L95.9,35.28,110.26,20a7.91,7.91,0,0,1,11.52,0L161,61.68A7.91,7.91,0,0,1,155.21,75H91.49a9.91,9.91,0,0,0-9.9,9.9V99.69L75.41,93a2.49,2.49,0,0,0-3.49-.14,2.48,2.48,0,0,0-.14,3.53L84,109.59,96.26,96.43a2.5,2.5,0,0,0-.14-3.53,2.51,2.51,0,0,0-3.5.14L86.44,99.7V84.9a5.06,5.06,0,0,1,5-5.05h63.72a12.76,12.76,0,0,0,9.29-21.49Z"/><path class="cls-1" d="M50.43,33.06a2.37,2.37,0,0,0-2.38,2.37v7.76a11.28,11.28,0,0,0-7-2.39,11.65,11.65,0,0,0,0,23.29,11.19,11.19,0,0,0,7-2.38A2.4,2.4,0,0,0,50.43,64a2.37,2.37,0,0,0,2.37-2.42V35.43A2.34,2.34,0,0,0,50.43,33.06ZM48.05,52.12v.64a6.79,6.79,0,1,1-13.58-.32,6.91,6.91,0,0,1,6.81-7.14A6.84,6.84,0,0,1,48.05,52.12Z"/><path class="cls-1" d="M64.79,50.52c-2.75-.89-3.9-1.51-3.9-3a2.28,2.28,0,0,1,2.44-2.32A2.78,2.78,0,0,1,66.09,47a2.15,2.15,0,0,0,2.14,1.69,2.21,2.21,0,0,0,2.22-2.21c0-3.12-3.19-5.67-7.12-5.67a6.74,6.74,0,0,0-7.07,6.7c0,4.76,3.6,6,6.22,6.83,2.44.83,3.34,1.66,3.34,3.06a2.36,2.36,0,0,1-2.53,2.28,3,3,0,0,1-3-2.13A2.2,2.2,0,0,0,58.23,56,2.23,2.23,0,0,0,56,58.25c0,3.17,3.34,5.84,7.28,5.84a7,7,0,0,0,7.28-6.78C70.57,52.78,67.26,51.26,64.79,50.52Z"/><path class="cls-1" d="M83.53,40.8C77.79,40.8,73.78,45,73.78,51V61.59A2.37,2.37,0,0,0,76.16,64a2.41,2.41,0,0,0,2.37-2.42V51c0-3.49,1.91-5.66,5-5.66s5,2.17,5,5.66V61.59A2.37,2.37,0,0,0,91,64a2.41,2.41,0,0,0,2.37-2.42V51C93.32,45,89.29,40.8,83.53,40.8Z"/><path class="cls-1" d="M117.24,33.06a2.37,2.37,0,0,0-2.37,2.37v7.76a11.4,11.4,0,0,0-18.38,9.25,11.41,11.41,0,0,0,11.4,11.65,11.19,11.19,0,0,0,7-2.38,2.39,2.39,0,0,0,2.37,2.3,2.37,2.37,0,0,0,2.37-2.42V35.43A2.34,2.34,0,0,0,117.24,33.06Zm-2.37,19.06v.64a6.81,6.81,0,1,1-6.77-7.46A6.84,6.84,0,0,1,114.87,52.12Z"/><path class="cls-1" d="M133,40.8c-5.51,0-9.21,3.87-9.21,9.62V61.59A2.37,2.37,0,0,0,126.15,64a2.41,2.41,0,0,0,2.38-2.42V50.42c0-3.25,1.62-5.12,4.46-5.12a2.28,2.28,0,0,0,2.25-2.25A2.25,2.25,0,0,0,133,40.8Z"/></g></g></svg>