<?xml version="1.0" encoding="utf-8"?>
<!-- Generator: Adobe Illustrator 25.1.0, SVG Export Plug-In . SVG Version: 6.00 Build 0)  -->
<svg version="1.1" id="Layer_1" xmlns="http://www.w3.org/2000/svg" xmlns:xlink="http://www.w3.org/1999/xlink" x="0px" y="0px"
	 viewBox="0 0 168 109.6" style="enable-background:new 0 0 168 109.6;" xml:space="preserve">
<style type="text/css">
	.st0{fill:#FFFFFF;}
</style>
<g id="Layer_2_1_">
	<g id="Layer_1-2">
		<path class="st0" d="M163.7,58.8L125,17.5c-2.4-2.5-5.7-4-9.2-4l0,0c-3.5,0-6.8,1.4-9.2,4L95.9,28.9l-22.5-24
			c-4.8-5.1-12.8-5.3-17.8-0.5c-0.2,0.2-0.4,0.4-0.5,0.5L4.5,58.8C-0.3,63.9,0,71.9,5.1,76.7c2.3,2.2,5.4,3.4,8.6,3.4h37.4
			c1.3-0.1,2.3-1.2,2.2-2.6c-0.1-1.2-1-2.2-2.2-2.2H13.7c-4.3,0-7.8-3.5-7.8-7.8c0-2,0.8-3.9,2.1-5.4L58.5,8.2
			c3.1-3.2,8.2-3.2,11.3-0.1c0,0,0.1,0.1,0.1,0.1l26,27.7l14.2-15.2c3-3.2,7.9-3.3,11.1-0.3c0.1,0.1,0.2,0.2,0.3,0.3l38.8,41.3
			c3,3.2,2.8,8.1-0.4,11.1c-1.5,1.4-3.4,2.1-5.4,2.1h-63c-5.4,0-9.8,4.4-9.8,9.8v14.7l-6.1-6.6c-0.9-1-2.5-1-3.5-0.1
			c-1,0.9-1.1,2.5-0.2,3.5c0,0,0,0,0,0l12.1,13.1l12.1-13c0.9-1,0.9-2.6-0.1-3.5c-1-0.9-2.5-0.8-3.5,0.1l-6.1,6.6V85.1
			c0-2.7,2.2-5,4.9-5h63c7,0,12.6-5.7,12.6-12.7C167.1,64.2,165.9,61.1,163.7,58.8L163.7,58.8z"/>
		<path class="st0" d="M50.9,33.7c-1.3,0-2.3,1-2.4,2.3c0,0,0,0,0,0v7.7c-2-1.5-4.4-2.4-6.9-2.4c-6.4,0.2-11.4,5.5-11.2,11.9
			c0.2,6.1,5.1,11,11.2,11.2c2.5,0,4.9-0.8,6.9-2.4c0.1,1.3,1.1,2.3,2.4,2.3c1.3,0,2.3-1.1,2.3-2.3c0,0,0,0,0-0.1V36.1
			C53.3,34.8,52.3,33.7,50.9,33.7C51,33.7,50.9,33.7,50.9,33.7z M48.6,52.6v0.6c-0.1,3.7-3.2,6.7-6.9,6.6c-3.7-0.1-6.6-3.2-6.6-6.9
			c-0.1-3.8,2.8-7,6.6-7.1c0,0,0.1,0,0.1,0C45.6,45.9,48.6,48.9,48.6,52.6z"/>
		<path class="st0" d="M65.1,51c-2.7-0.9-3.9-1.5-3.9-3c0-1.2,1-2.3,2.2-2.3c0.1,0,0.1,0,0.2,0c1.2-0.1,2.3,0.7,2.7,1.8
			c0.2,1,1.1,1.7,2.1,1.7c1.2,0,2.2-1,2.2-2.2c0,0,0,0,0,0c0-3.1-3.2-5.6-7-5.6c-3.7-0.2-6.8,2.7-7,6.3c0,0.1,0,0.2,0,0.3
			c0,4.7,3.6,5.9,6.2,6.8c2.4,0.8,3.3,1.6,3.3,3c0,1.3-1.1,2.3-2.4,2.3c0,0-0.1,0-0.1,0c-1.4,0.1-2.6-0.8-3-2.1
			c-0.3-0.9-1.1-1.5-2-1.5c-1.2,0-2.2,1-2.2,2.2c0,0,0,0,0,0c0,3.1,3.3,5.8,7.2,5.8c3.8,0.2,7-2.8,7.2-6.7c0,0,0,0,0-0.1
			C70.8,53.3,67.6,51.8,65.1,51z"/>
		<path class="st0" d="M83.7,41.4c-5.7,0-9.6,4.2-9.6,10.1V62c0,1.3,1,2.4,2.3,2.4c0,0,0,0,0,0c1.3,0,2.3-1.1,2.3-2.4V51.5
			c0-3.5,1.9-5.6,4.9-5.6c3.1,0,4.9,2.2,4.9,5.6V62c0,1.3,1,2.4,2.3,2.4c0,0,0.1,0,0.1,0c1.3,0,2.3-1.1,2.3-2.4V51.5
			C93.3,45.5,89.4,41.4,83.7,41.4z"/>
		<path class="st0" d="M117,33.7c-1.3,0-2.3,1.1-2.3,2.3l0,0v7.7c-4.9-3.8-12-2.9-15.8,2c-1.6,2-2.4,4.6-2.4,7.2
			c-0.1,6.2,4.8,11.4,11,11.5c0.1,0,0.2,0,0.2,0c2.5,0,4.9-0.8,6.9-2.4c0,1.3,1.1,2.3,2.3,2.3c1.3,0,2.3-1.1,2.3-2.3c0,0,0,0,0-0.1
			V36.1C119.4,34.8,118.4,33.7,117,33.7C117.1,33.7,117,33.7,117,33.7z M114.7,52.6v0.6c-0.4,3.7-3.6,6.4-7.3,6.1
			c-3.7-0.4-6.4-3.7-6.1-7.4c0.3-3.5,3.2-6.1,6.7-6.1C111.7,45.9,114.6,48.9,114.7,52.6z"/>
		<path class="st0" d="M132.6,41.4c-5.4,0-9.1,3.8-9.1,9.5V62c0,1.3,1,2.4,2.3,2.4c0,0,0,0,0,0c1.3,0,2.4-1.1,2.4-2.4V50.9
			c0-3.2,1.6-5.1,4.4-5.1c1.2,0,2.2-1,2.2-2.2C134.8,42.4,133.8,41.4,132.6,41.4z"/>
	</g>
</g>
</svg>
